<svg xmlns="http://www.w3.org/2000/svg" viewBox="0 0 1400 950">
  <rect width="1400" height="950" fill="#07080d"/>
  <circle cx="1120" cy="150" r="360" fill="#52f5ff" opacity=".16"/>
  <circle cx="230" cy="820" r="420" fill="#f53cff" opacity=".13"/>
  <rect x="110" y="120" width="1180" height="710" rx="26" fill="#11141d" stroke="#ffffff" stroke-opacity=".16"/>
  <rect x="160" y="170" width="450" height="610" rx="18" fill="#090a10"/>
  <rect x="670" y="170" width="560" height="96" rx="16" fill="#181c29"/>
  <rect x="670" y="306" width="250" height="190" rx="16" fill="#151925"/>
  <rect x="980" y="306" width="250" height="190" rx="16" fill="#151925"/>
  <rect x="670" y="536" width="560" height="70" rx="14" fill="#52f5ff" opacity=".72"/>
  <rect x="670" y="640" width="360" height="28" rx="14" fill="#ffffff" opacity=".26"/>
  <rect x="670" y="696" width="470" height="28" rx="14" fill="#ffffff" opacity=".15"/>
  <path d="M254 604c78-152 153-228 225-228 53 0 92 40 118 119v285H254V604Z" fill="url(#g)"/>
  <path d="M220 248h310" stroke="#fff" stroke-opacity=".62" stroke-width="18" stroke-linecap="round"/>
  <path d="M220 302h224" stroke="#fff" stroke-opacity=".22" stroke-width="14" stroke-linecap="round"/>
  <defs>
    <linearGradient id="g" x1="254" x2="597" y1="376" y2="780" gradientUnits="userSpaceOnUse">
      <stop stop-color="#52f5ff"/>
      <stop offset=".6" stop-color="#f53cff"/>
      <stop offset="1" stop-color="#9fffcb"/>
    </linearGradient>
  </defs>
</svg>
